<?xml version="1.0" standalone="no"?>
<!DOCTYPE svg PUBLIC "-//W3C//DTD SVG 20010904//EN"
 "http://www.w3.org/TR/2001/REC-SVG-20010904/DTD/svg10.dtd">
<svg version="1.0" xmlns="http://www.w3.org/2000/svg"
 width="500.000000pt" height="500.000000pt" viewBox="0 0 500.000000 500.000000"
 preserveAspectRatio="xMidYMid meet">
<metadata>
Created by potrace 1.14, written by Peter Selinger 2001-2017
</metadata>
<g transform="translate(0.000000,500.000000) scale(0.100000,-0.100000)"
fill="#000000" stroke="none">
<path d="M3630 4080 c-102 -14 -143 -33 -210 -100 -64 -64 -90 -101 -149 -216
-145 -286 -145 -695 1 -991 28 -57 54 -103 59 -103 4 0 10 -8 13 -18 4 -10 34
-47 69 -83 57 -59 118 -98 207 -132 61 -23 78 -35 131 -88 64 -64 93 -131 107
-249 24 -192 -48 -369 -177 -437 -37 -20 -378 -18 -419 3 -28 14 -40 14 -122
0 -71 -13 -174 -16 -495 -16 -223 0 -413 4 -423 9 -9 4 -35 16 -57 26 -162 75
-292 267 -359 530 -52 206 -44 512 19 729 29 101 54 154 123 256 130 196 298
280 472 236 35 -9 67 -20 70 -24 3 -4 22 -15 42 -26 43 -22 124 -105 187 -191
62 -86 87 -105 139 -105 24 0 56 7 71 16 91 54 145 256 107 404 -39 152 -224
379 -401 491 -75 47 -234 84 -331 76 -74 -6 -156 -21 -189 -36 -146 -64 -235
-134 -343 -273 -109 -140 -174 -255 -247 -436 -40 -100 -57 -123 -63 -85 -5
27 -55 192 -143 464 -89 276 -111 318 -185 350 -55 23 -62 23 -105 2 -74 -36
-102 -82 -164 -268 -18 -55 -90 -266 -160 -470 -69 -203 -150 -444 -180 -535
-30 -91 -83 -248 -118 -350 -35 -102 -107 -313 -160 -470 -52 -157 -120 -358
-151 -447 -63 -183 -74 -250 -56 -350 27 -147 98 -233 192 -233 39 0 54 6 83
32 47 41 63 73 136 280 33 95 71 193 84 218 12 25 26 65 30 90 4 25 14 63 22
85 8 22 18 61 23 88 5 26 27 84 49 130 22 45 44 107 50 137 5 30 23 91 39 135
33 86 158 466 242 735 56 178 82 250 90 250 7 0 71 -187 131 -380 23 -74 72
-227 109 -340 38 -113 89 -272 115 -355 62 -196 69 -218 98 -295 65 -170 146
-313 247 -439 98 -123 157 -170 301 -240 104 -50 118 -52 431 -54 130 -1 240
-5 244 -10 11 -11 102 -9 109 3 8 13 106 13 140 0 15 -6 32 -7 38 -3 7 5 138
8 292 9 192 0 287 4 302 12 12 7 36 12 53 12 17 0 42 7 55 16 13 9 29 13 35 9
5 -3 13 1 16 9 3 9 13 16 21 16 9 0 37 16 63 35 269 198 409 722 324 1213 -43
248 -199 527 -354 632 -30 20 -95 56 -145 80 -96 45 -138 81 -161 135 -20 49
-17 132 6 180 21 45 80 116 80 97 0 -9 111 -12 480 -12 l480 0 0 -1027 c0
-688 4 -1058 11 -1118 13 -107 37 -176 80 -227 29 -36 34 -38 87 -38 49 0 63
4 94 30 42 34 80 110 97 188 8 37 11 418 11 1287 0 1307 0 1299 -46 1414 -9
23 -36 59 -60 80 -42 37 -46 38 -141 44 -134 9 -1025 6 -1093 -3z"/>
</g>
</svg>
